# xmcd
#
# Track frame offsets:
#	150
#	14006
#	29502
#	48436
#	62084
#	78060
#	97247
#	108510
#	131324
#	143173
#	156849
#	172353
#	195841
#	211764
#
# Disc length: 3011 seconds
#
# Revision: 0
# Processed by: cddbd v1.5.1PL0 Copyright (c) Steve Scherf et al.
# Submitted via: dBpowerAMP V4.0
#
DISCID=bf0bc10e
DTITLE=Billy Flynn - Blues and Love
DYEAR=2002
DGENRE=Blues
TTITLE0=Kat Daddy
TTITLE1=Carzy 'Bout Mary
TTITLE2=Listen to My Guitar
TTITLE3=Blues is a Feelin
TTITLE4=Missin' You
TTITLE5=This Time
TTITLE6=How Will I Know
TTITLE7=Keep Smilin'
TTITLE8=Precious Gift
TTITLE9=Spring Again
TTITLE10=It's So Good
TTITLE11=How Long Has It Been
TTITLE12=Blues Made Me Sick
TTITLE13=You Deserve Much More
EXTD=
EXTT0=
EXTT1=
EXTT2=
EXTT3=
EXTT4=
EXTT5=
EXTT6=
EXTT7=
EXTT8=
EXTT9=
EXTT10=
EXTT11=
EXTT12=
EXTT13=
PLAYORDER=
